<svg width="25" height="25" viewBox="0 0 25 25" fill="none" xmlns="http://www.w3.org/2000/svg">
<path d="M23 0H2C0.895431 0 0 0.89543 0 2V23C0 24.1046 0.89543 25 2 25H23C24.1046 25 25 24.1046 25 23V2C25 0.895431 24.1046 0 23 0Z" fill="white"/>
<path d="M8.06852 13.0685C8.41263 13.1376 8.73251 13.296 8.99602 13.5278L17.3731 20.8985C17.4745 20.9883 17.5976 21.0502 17.7302 21.0781C17.8628 21.106 18.0004 21.0989 18.1295 21.0575C18.2585 21.0161 18.3746 20.9419 18.4662 20.8421C18.5579 20.7424 18.6221 20.6204 18.6524 20.4884L22.3243 4.45321C22.3551 4.31512 22.3478 4.17126 22.3032 4.03698C22.2586 3.9027 22.1784 3.78306 22.0711 3.69082C21.9638 3.59857 21.8335 3.5372 21.694 3.51324C21.5546 3.48928 21.4113 3.50363 21.2793 3.55478L3.25199 10.6349C2.52934 10.9181 2.627 11.9727 3.38871 12.129L8.06852 13.0685Z" fill="white" stroke="#3B6FB4" stroke-linecap="round" stroke-linejoin="round"/>
<path d="M8.59375 13.1733L21.8848 3.57373" stroke="#3B6FB4" stroke-linecap="round" stroke-linejoin="round"/>
<path d="M12.9785 17.0317L9.93164 20.0786C9.82294 20.189 9.68388 20.2646 9.53213 20.2957C9.38038 20.3269 9.2228 20.3122 9.0794 20.2536C8.936 20.195 8.81327 20.0951 8.72679 19.9665C8.64032 19.838 8.59401 19.6867 8.59375 19.5317V13.1743" fill="white"/>
<path d="M12.9785 17.0317L9.93164 20.0786C9.82294 20.189 9.68388 20.2646 9.53213 20.2957C9.38038 20.3269 9.2228 20.3122 9.0794 20.2536C8.936 20.195 8.81327 20.0951 8.72679 19.9665C8.64032 19.838 8.59401 19.6867 8.59375 19.5317V13.1743" stroke="#3B6FB4" stroke-linecap="round" stroke-linejoin="round"/>
</svg>
