<svg width="9" height="12" viewBox="0 0 9 12" fill="none" xmlns="http://www.w3.org/2000/svg">
<path d="M4.34096 0C1.92931 0 0 1.92931 0 4.34096C0 7.33139 1.63992 9.9842 4.09979 11.5277C4.24449 11.6241 4.43742 11.6241 4.63035 11.5277C7.042 9.93597 8.68191 7.33139 8.68191 4.34096C8.68191 1.92931 6.7526 0 4.34096 0ZM4.34096 6.27027C3.27983 6.27027 2.41164 5.40208 2.41164 4.34096C2.41164 3.27983 3.27983 2.41164 4.34096 2.41164C5.40208 2.41164 6.27027 3.27983 6.27027 4.34096C6.27027 5.40208 5.40208 6.27027 4.34096 6.27027Z" fill="#E38B47"/>
</svg>
