<svg width="27" height="27" viewBox="0 0 27 27" fill="none" xmlns="http://www.w3.org/2000/svg">
<path d="M26.9999 13.185C26.9999 20.4669 21.0968 26.37 13.8149 26.37C6.53302 26.37 0.629883 20.4669 0.629883 13.185C0.629883 5.90313 6.53302 0 13.8149 0C21.0968 0 26.9999 5.90313 26.9999 13.185Z" fill="#3B6FB4" fill-opacity="0.29"/>
<path d="M15.4157 16.6721C16.2242 16.4862 16.9964 16.1631 17.6983 15.7171C18.2271 15.3594 18.3691 14.6364 18.0153 14.1018C17.6755 13.5878 16.9983 13.4326 16.4714 13.7474C14.8546 14.7697 12.8003 14.7697 11.1835 13.7474C10.6465 13.4051 9.93763 13.5679 9.5984 14.1095C9.5984 14.1108 9.5984 14.1121 9.59715 14.1127C9.25856 14.6556 9.41962 15.3729 9.95664 15.7151L9.95792 15.7164C10.6585 16.1619 11.4302 16.4856 12.2379 16.6702L10.041 18.8911C9.59271 19.3366 9.58447 20.0641 10.0232 20.5172L10.0422 20.5365C10.2604 20.7634 10.5558 20.8762 10.85 20.8762C11.1449 20.8762 11.4397 20.7634 11.6584 20.5365L13.8275 18.3546L15.9858 20.5377C16.4423 20.9832 17.1714 20.971 17.6127 20.5089C18.0426 20.0583 18.0426 19.3436 17.6127 18.8937L15.4157 16.6721ZM13.8275 13.4339C15.9959 13.4314 17.7522 11.6559 17.7554 9.46443C17.7554 7.27554 15.9927 5.49365 13.8275 5.49365C11.6622 5.49365 9.89959 7.27554 9.89959 9.46571C9.90276 11.6578 11.6597 13.4333 13.8275 13.4346V13.4339ZM13.8275 7.82101C14.7253 7.82228 15.4525 8.55811 15.4532 9.46507C15.4532 10.3727 14.7253 11.1079 13.8275 11.1092C12.9303 11.1079 12.2031 10.3733 12.2011 9.46571C12.2024 8.55746 12.9303 7.82228 13.8275 7.82035V7.82101Z" fill="white"/>
</svg>
