<svg width="16" height="10" viewBox="0 0 16 10" fill="none" xmlns="http://www.w3.org/2000/svg">
<path d="M15.7913 0.945946C15.6522 0.878378 15.513 0.878378 15.4435 0.945946L13.0087 2.77027V1.95946C13.0087 0.878378 12.1043 0 10.9913 0H2.01739C0.904348 0 0 0.878378 0 1.95946V8.04054C0 9.12162 0.904348 10 2.01739 10H10.9913C12.1043 10 13.0087 9.12162 13.0087 8.04054V7.22973L15.4435 9.05405C15.513 9.12162 15.6522 9.12162 15.7913 9.05405C15.9304 8.98649 16 8.91892 16 8.78378V1.21622C16 1.08108 15.9304 1.01351 15.7913 0.945946Z" fill="#3B6FB4"/>
</svg>
