<svg width="27" height="27" viewBox="0 0 27 27" fill="none" xmlns="http://www.w3.org/2000/svg">
<path d="M13.185 26.37C20.4669 26.37 26.37 20.4669 26.37 13.185C26.37 5.90314 20.4669 0 13.185 0C5.90314 0 0 5.90314 0 13.185C0 20.4669 5.90314 26.37 13.185 26.37Z" fill="#3B6FB4" fill-opacity="0.29"/>
<path fill-rule="evenodd" clip-rule="evenodd" d="M12.6854 18.9692H13.7206C13.7206 18.9692 14.0348 18.9332 14.1944 18.7632C14.3438 18.6035 14.3386 18.31 14.3386 18.31C14.3386 18.31 14.318 16.9194 14.9618 16.7185C15.5953 16.5176 16.4143 18.0576 17.2795 18.655C17.9336 19.1031 18.4281 19.0053 18.4281 19.0053L20.7406 18.9744C20.7406 18.9744 21.9509 18.9023 21.3741 17.9494C21.3277 17.8722 21.0393 17.2438 19.6539 15.9614C18.2066 14.6171 18.3972 14.8334 20.1431 12.5055C21.2093 11.0891 21.6316 10.2238 21.4977 9.85301C21.3689 9.49763 20.5912 9.59549 20.5912 9.59549L17.9851 9.61094C17.9851 9.61094 17.7946 9.58518 17.6504 9.66759C17.5113 9.75 17.4186 9.94571 17.4186 9.94571C17.4186 9.94571 17.0066 11.0427 16.4555 11.975C15.2966 13.9424 14.8331 14.0454 14.6425 13.927C14.1996 13.6385 14.3129 12.7836 14.3129 12.1707C14.3129 10.265 14.6013 9.46673 13.7515 9.26071C13.4682 9.19375 13.2622 9.1474 12.536 9.14225C11.6089 9.13195 10.8209 9.14225 10.3728 9.36372C10.0793 9.50793 9.8475 9.8324 9.98656 9.84785C10.1565 9.86846 10.548 9.95601 10.754 10.2341C11.0218 10.5947 11.0115 11.4136 11.0115 11.4136C11.0115 11.4136 11.166 13.6592 10.651 13.9373C10.3007 14.1278 9.8166 13.7364 8.78652 11.9544C8.25603 11.0376 7.85945 10.0281 7.85945 10.0281C7.85945 10.0281 7.78219 9.83755 7.64313 9.7397C7.47316 9.61609 7.2414 9.58003 7.2414 9.58003L4.76921 9.59549C4.76921 9.59549 4.39838 9.60579 4.25932 9.76545C4.14086 9.90966 4.24902 10.2084 4.24902 10.2084C4.24902 10.2084 6.18557 14.7407 8.37964 17.0224C10.4037 19.1083 12.6854 18.9692 12.6854 18.9692Z" fill="white"/>
</svg>
