<svg width="7" height="11" viewBox="0 0 7 11" fill="none" xmlns="http://www.w3.org/2000/svg">
<path d="M4.12555 1.99865C4.67746 1.99865 5.12487 1.55124 5.12487 0.999326C5.12487 0.447413 4.67746 0 4.12555 0C3.57363 0 3.12622 0.447413 3.12622 0.999326C3.12622 1.55124 3.57363 1.99865 4.12555 1.99865Z" fill="#3D3D3D"/>
<path d="M6.66142 4.8967L5.37479 4.47198C5.37479 4.47198 4.66277 2.82309 4.63778 2.77313C4.4629 2.46084 4.13812 2.24848 3.76337 2.24848C3.61348 2.24848 3.46358 2.28596 3.33866 2.34841L1.58984 3.03545C1.46492 3.08542 1.36499 3.18535 1.31503 3.31027L0.690447 4.80925C0.590514 5.05909 0.702939 5.35888 0.965262 5.45882C1.02772 5.4838 1.09018 5.49629 1.15264 5.49629C1.3525 5.49629 1.53987 5.38387 1.61482 5.184L2.12698 3.88488L2.65162 3.68501L1.78971 7.89467L0.115834 9.9308C-0.0590476 10.1432 -0.0340645 10.4554 0.178292 10.6303C0.265733 10.7053 0.378158 10.7428 0.490582 10.7428C0.640481 10.7428 0.777888 10.6803 0.877821 10.5554L2.62664 8.43181C2.67661 8.36935 2.71408 8.2944 2.72657 8.21946L3.02637 6.77043L4.37546 7.74477V10.2431C4.37546 10.5179 4.60031 10.7428 4.87512 10.7428C5.14994 10.7428 5.37479 10.5179 5.37479 10.2431V7.49494C5.37479 7.33255 5.29984 7.18265 5.17492 7.09521L3.96324 6.20831L4.30051 4.52195L4.53785 5.07158C4.60031 5.19649 4.70024 5.29643 4.83765 5.34639L6.33664 5.84606C6.3866 5.85855 6.43657 5.87104 6.49903 5.87104C6.71139 5.87104 6.89876 5.73363 6.97371 5.53377C7.06115 5.27144 6.92374 4.98414 6.66142 4.8967Z" fill="#3D3D3D"/>
</svg>
