<svg width="27" height="27" viewBox="0 0 27 27" fill="none" xmlns="http://www.w3.org/2000/svg">
<path d="M13.5456 6.58643C12.4189 6.58649 11.3135 6.89342 10.348 7.47426C9.38259 8.0551 8.59359 8.88792 8.06571 9.88331C7.53784 10.8787 7.29104 11.9991 7.3518 13.1241C7.41257 14.2492 7.77861 15.3364 8.41062 16.2692L7.80447 18.6077L10.2417 18.0391C11.0554 18.5511 11.9769 18.8669 12.9336 18.9617C13.8903 19.0564 14.8559 18.9275 15.7542 18.5851C16.6525 18.2427 17.459 17.6962 18.1099 16.9887C18.7608 16.2812 19.2383 15.4321 19.5048 14.5084C19.7712 13.5847 19.8194 12.6117 19.6453 11.6663C19.4713 10.7208 19.0798 9.8287 18.5019 9.06043C17.924 8.29217 17.1754 7.66875 16.3153 7.2394C15.4551 6.81004 14.5069 6.5865 13.5456 6.58643ZM16.5956 16.1757C15.728 16.5826 13.9167 16.3703 12.0084 14.7372C10.1002 13.1042 9.61066 11.3472 9.87848 10.4273C10.1463 9.50732 11.1985 9.33736 11.397 9.38129C11.5955 9.42522 12.5881 10.9988 12.4529 11.1824C12.3176 11.3659 11.6643 12.0193 11.6643 12.0193C11.6643 12.0193 11.6368 12.6878 12.8635 13.7377C14.0902 14.7876 14.7465 14.6571 14.7465 14.6571C14.7465 14.6571 15.2911 13.9103 15.4515 13.7486C15.612 13.587 17.3201 14.3245 17.3942 14.5138C17.4682 14.7031 17.4629 15.769 16.5954 16.1757H16.5956Z" fill="#3B6FB4" fill-opacity="0.29"/>
<path d="M13.185 0C5.90313 0 0 5.90313 0 13.185C0 20.4669 5.90313 26.37 13.185 26.37C20.4669 26.37 26.37 20.4669 26.37 13.185C26.37 5.90313 20.4669 0 13.185 0ZM13.5456 20.29C12.3079 20.2919 11.0891 19.986 9.99899 19.4L6.01052 20.3956L7.02077 16.4916C6.2067 15.0575 5.88783 13.3951 6.1135 11.7616C6.33916 10.1281 7.09678 8.6144 8.26916 7.45473C9.44155 6.29505 10.9634 5.55398 12.5993 5.34614C14.2352 5.1383 15.894 5.47527 17.3191 6.30492C18.7442 7.13458 19.8563 8.4107 20.4833 9.93589C21.1102 11.4611 21.2172 13.1504 20.7876 14.7425C20.358 16.3346 19.4158 17.7408 18.1067 18.7436C16.7976 19.7464 15.1946 20.2899 13.5456 20.29Z" fill="#3B6FB4" fill-opacity="0.29"/>
</svg>
