<svg width="27" height="26" viewBox="0 0 27 26" fill="none" xmlns="http://www.w3.org/2000/svg">
<path fill-rule="evenodd" clip-rule="evenodd" d="M13.5 0C20.9508 0 27 5.82512 27 13C27 20.1749 20.9508 26 13.5 26C6.04916 26 0 20.1749 0 13C0 5.82512 6.04916 0 13.5 0ZM21.585 9.08873C21.3909 8.38952 20.8192 7.839 20.0931 7.65213C18.777 7.3125 13.5 7.3125 13.5 7.3125C13.5 7.3125 8.22303 7.3125 6.90689 7.65213C6.181 7.839 5.60909 8.38952 5.41503 9.08873C5.0625 10.356 5.0625 13.0001 5.0625 13.0001C5.0625 13.0001 5.0625 15.6441 5.41503 16.9113C5.60909 17.6105 6.181 18.1612 6.90689 18.348C8.22303 18.6875 13.5 18.6875 13.5 18.6875C13.5 18.6875 18.777 18.6875 20.0931 18.348C20.8192 18.1612 21.3909 17.6105 21.585 16.9113C21.9375 15.6441 21.9375 13.0001 21.9375 13.0001C21.9375 13.0001 21.9375 10.356 21.585 9.08873ZM11.8124 15.4377V10.5626L16.1966 13.0001L11.8124 15.4377Z" fill="#3B6FB4" fill-opacity="0.29"/>
</svg>
