<svg width="25" height="25" viewBox="0 0 25 25" fill="none" xmlns="http://www.w3.org/2000/svg">
<rect width="25" height="25" rx="2" fill="white"/>
<path fill-rule="evenodd" clip-rule="evenodd" d="M21 18.0485C21 19.1265 20.2216 20 19.2609 20H6.73913C5.77843 20 5 19.1265 5 18.0485V6.72976C5 5.86759 5.62296 5.16856 6.3913 5.16856H13.4073L16.2243 4.02341C16.4028 3.95043 16.6003 4.05386 16.6654 4.2533L16.9621 5.16856H18.2174C18.9857 5.16856 19.6087 5.86759 19.6087 6.72976V7.51036C20.377 7.51036 21 8.20939 21 9.07157V18.0485ZM6.3913 5.94916C6.0073 5.94916 5.69565 6.29887 5.69565 6.72976C5.69565 7.16065 6.0073 7.51036 6.3913 7.51036H7.58957H7.6553C7.65983 7.50841 7.66261 7.50412 7.66713 7.50217L11.487 5.94916H6.3913ZM16.5054 6.0198L16.136 4.87856L15.4223 5.16856H15.4233L13.5054 5.94916H13.5019L9.66226 7.51036H16.9882L16.5054 6.0198ZM18.913 6.72976C18.913 6.29887 18.6014 5.94916 18.2174 5.94916H17.2146L17.7203 7.51036H18.913V6.72976ZM19.6087 8.29097H6.3913C6.1367 8.29097 5.90087 8.20861 5.69565 8.07435V18.0485C5.69565 18.6952 6.16313 19.2194 6.73913 19.2194H19.2609C19.8372 19.2194 20.3043 18.6952 20.3043 18.0485V15.3164H18.913C18.1447 15.3164 17.5217 14.6174 17.5217 13.7552C17.5217 12.893 18.1447 12.194 18.913 12.194H20.3043V9.07157C20.3043 8.64068 19.9927 8.29097 19.6087 8.29097ZM20.3043 14.5358V12.9746H18.913C18.529 12.9746 18.2174 13.3243 18.2174 13.7552C18.2174 14.1861 18.529 14.5358 18.913 14.5358H20.3043ZM18.913 13.3649H19.6087V14.1455H18.913V13.3649Z" fill="#E38B47"/>
</svg>
